<?xml version="1.0" standalone="no"?>
<!DOCTYPE svg PUBLIC "-//W3C//DTD SVG 20010904//EN"
 "http://www.w3.org/TR/2001/REC-SVG-20010904/DTD/svg10.dtd">
<svg version="1.0" xmlns="http://www.w3.org/2000/svg"
 width="180.000000pt" height="180.000000pt" viewBox="0 0 180.000000 180.000000"
 preserveAspectRatio="xMidYMid meet">
<metadata>
Created by potrace 1.11, written by Peter Selinger 2001-2013
</metadata>
<g transform="translate(0.000000,180.000000) scale(0.100000,-0.100000)"
fill="#000000" stroke="none">
<path d="M0 900 l0 -900 209 0 209 0 78 78 c84 84 130 111 191 115 37 2 38 1
40 -33 1 -19 2 -43 2 -52 1 -10 13 -24 29 -32 l27 -15 -23 -7 -23 -7 23 -21
c12 -12 38 -22 60 -23 32 -2 43 4 81 40 25 23 67 63 93 88 27 25 60 60 72 77
13 17 41 43 63 58 21 15 39 31 39 37 0 6 7 18 14 26 8 9 18 32 21 51 3 19 10
39 15 45 5 6 9 27 8 47 -1 19 2 39 5 45 4 6 -2 18 -13 28 -10 9 -16 24 -14 33
5 14 4 14 -6 -1 -12 -19 -35 -13 -24 6 4 7 4 9 -1 5 -4 -4 -15 -2 -23 5 -13 9
-14 9 -8 0 5 -9 0 -13 -13 -13 -12 0 -21 -4 -21 -9 0 -5 14 -7 30 -6 22 2 34
-3 41 -17 9 -18 8 -18 -10 -8 -23 12 -28 1 -9 -18 8 -8 8 -12 1 -12 -6 0 -14
7 -17 16 -3 8 -11 12 -17 8 -8 -5 -9 -3 -4 6 6 10 4 12 -8 7 -14 -5 -17 0 -17
24 0 20 4 28 12 23 6 -4 8 -3 4 4 -3 6 -2 13 4 17 5 3 10 12 10 18 0 7 -5 4
-11 -6 -8 -14 -14 -16 -25 -6 -11 9 -14 7 -14 -12 0 -19 -2 -21 -10 -9 -5 8
-10 11 -10 5 0 -5 -10 1 -21 15 l-20 25 3 -25 c2 -14 8 -28 13 -32 6 -5 5 -8
-2 -8 -7 0 -13 -6 -13 -14 0 -8 6 -17 13 -19 10 -4 10 -6 0 -6 -7 -1 -13 -9
-12 -18 0 -11 3 -13 6 -5 9 22 20 12 15 -14 -3 -19 -7 -22 -13 -12 -5 7 -9 9
-9 3 0 -5 -7 3 -16 20 -12 24 -13 37 -4 77 11 45 10 48 -14 73 -14 14 -30 25
-37 25 -6 0 -9 6 -6 13 2 7 -13 26 -35 42 -41 31 -45 51 -13 69 73 40 102 61
98 72 -3 8 8 15 31 20 20 3 38 10 41 14 5 8 -32 25 -78 36 -36 8 -43 21 -22
44 16 18 16 19 -7 25 -14 4 -62 4 -107 1 -70 -4 -82 -2 -77 10 3 8 2 12 -3 9
-5 -3 -12 7 -14 22 -4 26 -4 26 -6 -4 -1 -30 -19 -48 -22 -23 -1 6 -3 15 -4
20 -1 6 -3 13 -4 18 -1 4 -8 -2 -16 -12 -8 -11 -15 -16 -15 -11 0 5 -6 0 -14
-10 -13 -18 -14 -18 -27 3 -8 13 -17 18 -24 12 -15 -13 -32 1 -40 31 -8 34 16
55 71 58 7 1 14 10 17 21 3 11 14 20 24 20 11 0 23 3 27 8 8 7 13 8 44 11 13
1 14 3 4 10 -11 7 -10 10 3 15 9 3 21 4 26 0 10 -6 47 27 39 34 -3 3 19 18 47
34 40 22 66 30 103 30 60 -1 76 -8 59 -28 -10 -12 -8 -18 7 -29 10 -8 25 -15
32 -15 6 0 12 -4 12 -10 0 -5 11 -10 25 -10 23 0 25 -2 14 -21 -6 -12 -8 -35
-5 -53 4 -17 8 -42 9 -56 2 -14 8 -24 15 -23 7 2 12 -1 12 -5 0 -5 20 -30 45
-56 34 -37 44 -55 42 -77 -1 -16 1 -29 6 -29 4 0 7 3 8 8 0 4 10 12 22 18 17
10 23 9 32 -3 10 -13 13 -13 24 1 20 24 28 20 41 -19 14 -43 30 -36 30 13 0
53 -12 66 -49 59 -28 -6 -31 -5 -22 12 6 10 21 21 34 23 20 4 26 -1 36 -27 14
-40 14 -107 0 -176 -6 -30 -14 -72 -18 -93 -8 -50 -32 -67 -60 -42 -19 17 -21
17 -21 3 0 -10 4 -17 9 -17 5 0 12 -39 16 -87 8 -110 21 -152 48 -163 12 -4
35 -22 51 -39 17 -17 34 -31 40 -31 5 0 17 -6 25 -13 9 -7 59 -33 111 -57 52
-24 112 -54 132 -67 21 -13 40 -23 43 -23 3 0 4 350 3 777 l-3 777 -70 23
c-88 28 -126 28 -194 2 -102 -38 -146 -93 -182 -226 -22 -84 -23 -86 -38 -63
-17 24 -88 98 -112 115 -8 6 -23 17 -34 25 -17 14 -18 13 -12 -5 6 -17 4 -17
-13 4 -11 13 -23 21 -26 18 -4 -3 -18 5 -33 19 -14 13 -31 22 -38 20 -7 -3
-15 -1 -18 4 -3 5 -12 7 -20 3 -8 -3 -23 -2 -32 2 -43 19 -142 34 -149 24 -3
-5 -1 -9 4 -9 6 0 12 -7 16 -15 3 -8 2 -14 -2 -13 -4 1 -18 -4 -31 -11 -14 -8
-21 -9 -17 -2 4 6 2 11 -4 11 -6 0 -9 4 -5 10 3 5 13 6 23 3 14 -5 15 -3 5 7
-10 11 -16 11 -32 -4 -17 -15 -19 -15 -25 -1 -8 23 -25 9 -19 -15 3 -12 0 -20
-6 -20 -7 0 -9 4 -6 10 3 5 -5 15 -19 22 -26 11 -35 28 -16 28 6 0 10 9 10 20
0 13 -7 20 -20 20 -11 0 -20 5 -20 10 0 6 5 10 10 10 6 0 10 5 10 10 0 6 -13
10 -30 10 -30 0 -42 -21 -20 -35 6 -3 10 -14 10 -24 0 -10 11 -30 25 -45 l24
-26 -25 6 c-19 5 -23 3 -19 -9 9 -22 -35 -30 -51 -9 -8 10 -14 12 -14 5 0 -6
-9 -11 -19 -10 -11 0 -19 4 -19 7 2 18 -5 19 -27 4 -15 -9 -25 -26 -25 -39 0
-15 -7 -25 -22 -28 -25 -7 -29 -5 -32 15 -3 22 -54 127 -76 159 l-21 29 -170
0 -169 0 0 -900z m887 796 c-3 -8 5 -18 19 -25 25 -11 25 -31 -1 -31 -7 0 -15
-3 -18 -7 -2 -5 -3 -3 -1 4 1 6 -7 14 -19 17 -31 8 -37 7 -37 -4 0 -5 7 -7 15
-4 11 5 13 2 9 -10 -7 -18 -29 -21 -39 -6 -3 6 -16 10 -27 10 -12 0 -18 -3
-15 -7 4 -3 -1 -12 -11 -20 -9 -8 -12 -12 -5 -9 6 4 14 2 18 -4 5 -9 -3 -11
-32 -10 -5 1 -7 10 -5 21 2 14 -6 24 -30 35 -24 11 -27 14 -8 10 14 -3 31 -6
38 -6 7 0 11 -4 7 -9 -3 -5 -1 -12 5 -16 10 -6 14 7 11 33 -1 6 3 12 9 12 6 0
8 -4 5 -10 -4 -6 5 -10 19 -10 14 0 26 4 26 9 0 5 11 12 25 15 14 4 24 10 24
14 -3 15 1 22 12 22 6 0 9 -6 6 -14z m156 -20 c3 3 10 -4 17 -15 6 -13 16 -19
23 -14 8 4 7 1 -1 -9 -12 -16 -16 -15 -45 3 -45 27 -53 24 -20 -7 27 -25 26
-24 -14 3 -31 21 -38 30 -27 36 8 4 19 5 24 2 6 -3 10 -1 10 6 0 8 3 9 13 0 8
-6 16 -8 20 -5z m-176 -68 c-3 -8 -6 -5 -6 6 -1 11 2 17 5 13 3 -3 4 -12 1
-19z m-137 6 c0 -8 -19 -13 -24 -6 -3 5 1 9 9 9 8 0 15 -2 15 -3z m246 -51 c6
-23 7 -48 2 -55 -5 -9 -8 -8 -8 5 0 19 -13 22 -41 7 -24 -14 -26 6 -3 53 22
45 38 42 50 -10z m-308 -18 c-3 -3 -9 2 -12 12 -6 14 -5 15 5 6 7 -7 10 -15 7
-18z m207 -2 c1 -10 7 -17 13 -16 6 1 7 -7 4 -20 -5 -18 -7 -19 -10 -4 -2 9
-7 17 -12 17 -5 0 -7 -8 -4 -17 4 -13 3 -14 -3 -5 -5 7 -8 23 -7 35 1 12 3 26
3 31 1 14 12 0 16 -21z m226 -26 c-10 -9 -11 -8 -5 6 3 10 9 15 12 12 3 -3 0
-11 -7 -18z m-432 0 c8 -10 7 -14 -2 -14 -8 0 -14 6 -14 14 0 7 1 13 2 13 2 0
8 -6 14 -13z m130 -31 c28 -44 27 -56 -1 -20 -13 16 -26 31 -30 32 -11 5 -10
22 1 22 5 0 19 -15 30 -34z m-276 -3 c-3 -7 -6 -13 -8 -13 -2 0 -5 6 -8 13 -3
8 1 14 8 14 7 0 11 -6 8 -14z m107 7 c0 -5 -2 -10 -4 -10 -3 0 -8 5 -11 10 -3
6 -1 10 4 10 6 0 11 -4 11 -10z m277 -12 c-3 -8 -6 -5 -6 6 -1 11 2 17 5 13 3
-3 4 -12 1 -19z m-454 -31 c9 -4 17 -14 17 -22 0 -9 4 -14 9 -10 5 3 13 0 17
-6 4 -8 3 -9 -4 -5 -7 4 -12 1 -12 -6 -1 -7 -7 -2 -15 12 -7 14 -16 24 -19 23
-14 -7 -27 -2 -21 7 3 6 2 10 -3 10 -6 0 -13 8 -16 17 -6 15 -5 15 11 1 10 -8
26 -18 36 -21z m-108 3 c3 -5 2 -10 -4 -10 -5 0 -13 5 -16 10 -3 6 -2 10 4 10
5 0 13 -4 16 -10z m995 -6 c0 -8 -4 -12 -10 -9 -5 3 -10 10 -10 16 0 5 5 9 10
9 6 0 10 -7 10 -16z m-411 -24 c11 -24 11 -24 -3 -6 -9 11 -16 24 -16 30 0 12
5 7 19 -24z m341 -46 c0 -8 -19 -13 -24 -6 -3 5 1 9 9 9 8 0 15 -2 15 -3z
m107 -86 c2 -17 0 -19 -7 -8 -5 8 -6 18 -4 22 8 12 10 10 11 -14z m-7 -43 c4
3 7 -6 5 -20 -1 -14 2 -25 6 -25 5 0 9 -7 9 -16 0 -19 -16 -10 -31 18 -8 15
-8 19 0 14 19 -12 12 10 -9 29 -11 10 -20 23 -20 29 0 6 7 0 16 -12 8 -12 19
-20 24 -17z m-196 -20 c-9 -14 -18 -25 -21 -25 -5 0 5 18 20 38 17 22 18 13 1
-13z m2 -82 c-3 -19 -19 -21 -21 -2 -2 9 3 16 10 16 7 0 12 -6 11 -14z m27 2
c-3 -9 -8 -14 -10 -11 -3 3 -2 9 2 15 9 16 15 13 8 -4z m194 -81 c0 -7 -6 -10
-14 -7 -7 3 -13 8 -13 12 0 4 6 8 13 8 8 0 14 -6 14 -13z m-648 -207 c6 -12
25 -31 41 -42 17 -11 30 -23 30 -27 0 -5 10 -8 23 -9 12 0 16 -3 10 -6 -18 -7
-6 -80 18 -115 11 -14 19 -31 19 -37 0 -16 -70 -14 -71 2 0 9 -2 9 -5 0 -6
-14 -34 -6 -34 10 0 6 12 21 27 33 24 19 26 24 13 39 -12 14 -24 16 -71 11
-72 -8 -79 0 -69 77 12 84 43 113 69 64z m104 -272 c-3 -9 -8 -14 -10 -11 -3
3 -2 9 2 15 9 16 15 13 8 -4z m-15 -61 c12 -4 22 -14 22 -23 0 -24 30 -63 44
-58 7 3 13 -1 13 -9 0 -7 -4 -11 -8 -9 -9 6 -6 -16 4 -33 21 -33 -61 -51 -110
-24 -33 18 -28 32 17 50 35 13 41 19 38 41 -2 14 -9 27 -15 27 -7 1 -24 2 -37
3 -18 1 -24 6 -23 21 1 21 15 24 55 14z m305 -18 c3 -8 0 -19 -7 -25 -10 -9
-12 -6 -8 14 5 29 8 31 15 11z m-209 -101 c-4 -8 -11 -12 -16 -9 -6 4 -5 10 3
15 19 12 19 11 13 -6z"/>
<path d="M515 1790 c3 -5 8 -10 11 -10 2 0 4 5 4 10 0 6 -5 10 -11 10 -5 0 -7
-4 -4 -10z"/>
<path d="M1761 1797 c2 -1 12 -9 22 -16 14 -12 17 -11 17 3 0 10 -8 16 -22 16
-12 0 -19 -1 -17 -3z"/>
<path d="M976 1715 c4 -8 11 -15 16 -15 6 0 5 6 -2 15 -7 8 -14 15 -16 15 -2
0 -1 -7 2 -15z"/>
<path d="M1000 1010 c0 -6 7 -10 15 -10 8 0 15 2 15 4 0 2 -7 6 -15 10 -8 3
-15 1 -15 -4z"/>
<path d="M1225 970 c4 -6 11 -8 16 -5 14 9 11 15 -7 15 -8 0 -12 -5 -9 -10z"/>
<path d="M1231 934 c0 -11 3 -14 6 -6 3 7 2 16 -1 19 -3 4 -6 -2 -5 -13z"/>
<path d="M1310 890 c0 -22 7 -33 29 -44 21 -11 31 -12 40 -3 19 19 12 36 -21
57 -43 26 -48 25 -48 -10z"/>
<path d="M1250 891 c0 -6 4 -13 10 -16 6 -3 7 1 4 9 -7 18 -14 21 -14 7z"/>
<path d="M1245 721 c-6 -11 13 -26 22 -17 4 3 1 6 -6 6 -7 0 -9 5 -6 10 3 6 4
10 1 10 -3 0 -7 -4 -11 -9z"/>
<path d="M1240 679 c0 -5 5 -7 10 -4 6 3 10 8 10 11 0 2 -4 4 -10 4 -5 0 -10
-5 -10 -11z"/>
<path d="M1177 640 c-9 -34 -1 -37 22 -9 11 13 17 26 15 29 -3 2 -9 -2 -13 -9
-7 -11 -9 -11 -13 0 -3 8 -7 3 -11 -11z"/>
<path d="M1249 628 c-4 -15 -6 -38 -3 -38 2 0 8 9 14 20 7 14 7 20 0 20 -5 0
-10 -1 -11 -2z"/>
<path d="M1225 570 c-11 -17 5 -32 21 -19 7 6 11 15 8 20 -7 12 -21 11 -29 -1z"/>
<path d="M1046 105 c-20 -15 -20 -15 0 -15 11 0 29 7 40 15 19 14 19 14 -1 14
-11 0 -29 -6 -39 -14z"/>
</g>
</svg>
